<svg xmlns="http://www.w3.org/2000/svg" xmlns:xlink="http://www.w3.org/1999/xlink" viewBox="0 0 170.1001 53.199"><defs><style>.a{fill:none;}.b{fill:#fff;}.c{clip-path:url(#a);}</style><clipPath id="a" transform="translate(0 -0.0001)"><rect class="a" x="0.0004" width="170.10001" height="53.199"/></clipPath></defs><title>Asset 8</title><polygon class="b" points="57.104 7.82 57.104 30.362 65.629 20.34 72.119 20.34 60.599 33.819 72.119 45.378 65.13 45.378 57.565 37.66 57.411 37.505 57.104 37.851 57.104 45.378 52.112 45.378 52.112 7.82 57.104 7.82"/><g class="c"><path class="b" d="M95.6306,20.34h-9.576a12.52326,12.52326,0,0,0-12.52,12.519v12.52h4.993V32.859a7.53877,7.53877,0,0,1,7.527-7.488h4.704a15.19991,15.19991,0,0,1,2.321-2.96,15.55689,15.55689,0,0,1,2.551-2.071" transform="translate(0 -0.0001)"/><path class="b" d="M103.5659,25.3707a7.41965,7.41965,0,0,0-4.378,1.382,7.27411,7.27411,0,0,0-2.688,3.61h14.132a7.27407,7.27407,0,0,0-2.688-3.61,7.41965,7.41965,0,0,0-4.378-1.382m-2.496,10.023h-4.57a7.05787,7.05787,0,0,0,2.688,3.571,7.27485,7.27485,0,0,0,4.378,1.422h12.519v4.992h-12.519a12.45729,12.45729,0,0,1-12.519-12.519,12.52156,12.52156,0,0,1,12.519-12.52,11.9696,11.9696,0,0,1,8.833,3.687,11.96709,11.96709,0,0,1,3.686,8.833v2.496h-15.015Z" transform="translate(0 -0.0001)"/><path class="b" d="M118.3804,45.3782h4.992V20.3392h-4.992Zm4.954-30.069a3.43159,3.43159,0,0,1-4.916,0,3.35777,3.35777,0,0,1-1.036-2.458,3.40348,3.40348,0,0,1,1.036-2.496,3.52341,3.52341,0,0,1,4.916,0,3.40444,3.40444,0,0,1,1.037,2.496,3.35877,3.35877,0,0,1-1.037,2.458" transform="translate(0 -0.0001)"/><path class="b" d="M144.7723,40.3863v4.992h-4.992a12.45559,12.45559,0,0,1-12.52-12.519V7.8203h4.993v12.52h10.023v5.03h-10.023v7.489a7.60657,7.60657,0,0,0,7.527,7.527Z" transform="translate(0 -0.0001)"/><path class="b" d="M165.0701,32.859a7.5081,7.5081,0,1,0-12.788,5.3,7.15327,7.15327,0,0,0,5.299,2.227h7.489Zm-7.489-12.519a11.96959,11.96959,0,0,1,8.833,3.687,11.96486,11.96486,0,0,1,3.686,8.832v12.52h-12.519a12.45731,12.45731,0,0,1-12.519-12.52,12.52157,12.52157,0,0,1,12.519-12.519" transform="translate(0 -0.0001)"/><path class="b" d="M33.5877,22.1014a.834.834,0,1,1-.834-.834.83413.83413,0,0,1,.834.834m1.795,1.969a1.263,1.263,0,1,1-1.262-1.263,1.26219,1.26219,0,0,1,1.262,1.263m-16.845,2.529a9.458,9.458,0,1,0,9.458-9.458,9.45737,9.45737,0,0,0-9.458,9.458" transform="translate(0 -0.0001)"/><path class="b" d="M11.2424,4.7457a.8335.8335,0,1,1-.834-.834.8335.8335,0,0,1,.834.834m1.796,1.969a1.263,1.263,0,1,1-1.263-1.263,1.263,1.263,0,0,1,1.263,1.263M.0004,8.9497a7.337,7.337,0,1,0,7.337-7.337,7.33779,7.33779,0,0,0-7.337,7.337" transform="translate(0 -0.0001)"/><path class="b" d="M160.5638,29.6473a.641.641,0,1,1-.641-.641.641.641,0,0,1,.641.641m1.38,1.513a.9705.9705,0,1,1-.97-.971.97048.97048,0,0,1,.97.971m-10.022,1.718a5.64,5.64,0,1,0,5.64-5.64,5.64048,5.64048,0,0,0-5.64,5.64" transform="translate(0 -0.0001)"/><path class="b" d="M11.2424,41.6579a.8335.8335,0,1,1-.834-.834.83349.83349,0,0,1,.834.834m1.796,1.969a1.263,1.263,0,1,1-1.263-1.263,1.263,1.263,0,0,1,1.263,1.263M.0004,45.8619a7.337,7.337,0,1,0,7.337-7.337,7.33779,7.33779,0,0,0-7.337,7.337" transform="translate(0 -0.0001)"/><path class="b" d="M29.366,5.2431a1.263,1.263,0,1,1,1.263,1.263,1.26176,1.26176,0,0,1-1.263-1.263m-.938-1.969a.834.834,0,1,1,.834.834.83414.83414,0,0,1-.834-.834m1.668,38.099a.834.834,0,1,1-.834-.834.83349.83349,0,0,1,.834.834m1.796,1.969a1.263,1.263,0,1,1-1.263-1.263,1.263,1.263,0,0,1,1.263,1.263m-12.611,2.113c-.007.136-.02.268-.02.406a7.3385,7.3385,0,1,0,7.338-7.338c-.131.001-.259.013-.388.021-7.895-.063-11.44-3.542-11.565-11.357.016-.194.03-.39.03-.588.001-.134-.013-.264-.02-.398.066-7.891,3.546-11.431,11.364-11.554.192.014.384.029.58.029a7.338,7.338,0,1,0-7.338-7.337c0,.195.014.387.029.578-.122,7.819-3.663,11.299-11.554,11.365-.133-.007-.263-.02-.398-.02a7.338,7.338,0,1,0-.002,14.676c.204-.001.405-.014.605-.032,7.796.132,11.271,3.673,11.339,11.549" transform="translate(0 -0.0001)"/></g></svg>